<svg xmlns="http://www.w3.org/2000/svg" viewBox="0 0 260 168" role="img" aria-label="SecCon">
  <g fill="none" stroke="#2A7DE1" stroke-linecap="round" stroke-linejoin="round">
    <g stroke-width="7.5">
      <ellipse cx="130" cy="84" rx="112" ry="64"></ellipse>
      <line x1="130" y1="6" x2="130" y2="34"></line>
      <line x1="119" y1="20" x2="141" y2="20"></line>
      <line x1="130" y1="134" x2="130" y2="162"></line>
      <line x1="119" y1="148" x2="141" y2="148"></line>
      <line x1="-11" y1="84" x2="11" y2="84"></line>
      <line x1="249" y1="84" x2="271" y2="84"></line>
    </g>
    <g stroke-width="2.5">
      <path d="M 131.69 75.00 L 131.84 75.20 L 131.97 75.44 L 132.07 75.71 L 132.15 76.00 L 132.19 76.32 L 132.19 76.66 L 132.15 77.00 L 132.07 77.36 L 131.95 77.71 L 131.78 78.06 L 131.56 78.40 L 131.31 78.72 L 131.01 79.02 L 130.67 79.28 L 130.29 79.51 L 129.88 79.70 L 129.43 79.84 L 128.96 79.92 L 128.47 79.95 L 127.97 79.92 L 127.45 79.82 L 126.94 79.66 L 126.42 79.43 L 125.92 79.13 L 125.44 78.77 L 124.99 78.33 L 124.57 77.84 L 124.19 77.29 L 123.86 76.67 L 123.58 76.01 L 123.36 75.31 L 123.21 74.56 L 123.12 73.78 L 123.11 72.99 L 123.18 72.17 L 123.32 71.36 L 123.55 70.54 L 123.86 69.74 L 124.25 68.97 L 124.72 68.23 L 125.26 67.54 L 125.88 66.90 L 126.57 66.32 L 127.32 65.82 L 128.13 65.39 L 128.99 65.06 L 129.89 64.82 L 130.82 64.68 L 131.78 64.65 L 132.75 64.73 L 133.72 64.92 L 134.69 65.22 L 135.63 65.64 L 136.55 66.18 L 137.43 66.82 L 138.25 67.57 L 139.02 68.42 L 139.71 69.37 L 140.31 70.40 L 140.83 71.51 L 141.25 72.69 L 141.56 73.93 L 141.76 75.22 L 141.84 76.54 L 141.80 77.87 L 141.63 79.22 L 141.34 80.55 L 140.92 81.87 L 140.37 83.14 L 139.71 84.36 L 138.92 85.52 L 138.03 86.59 L 137.03 87.57 L 135.93 88.44 L 134.74 89.19 L 133.48 89.82 L 132.15 90.30 L 130.76 90.64 L 129.34 90.82 L 127.89 90.85 L 126.44 90.71 L 124.98 90.40 L 123.55 89.93 L 122.15 89.29 L 120.80 88.49 L 119.52 87.54 L 118.33 86.44 L 117.22 85.20 L 116.23 83.82 L 115.35 82.33 L 114.61 80.73 L 114.02 79.04 L 113.58 77.28 L 113.29 75.46 L 113.17 73.60 L 113.23 71.71 L 113.45 69.83 L 113.85 67.96 L 114.43 66.14 L 115.17 64.36 L 116.08 62.67 L 117.15 61.07 L 118.37 59.58 L 119.73 58.23 L 121.22 57.02 L 122.82 55.98" fill="none"></path>
      <path d="M 130.00 62.00 L 130.41 62.06 L 130.81 62.12 L 131.21 62.20 L 131.61 62.29 L 132.00 62.40 L 132.38 62.51 L 132.76 62.64 L 133.14 62.77 L 133.51 62.92 L 133.88 63.07 L 134.24 63.24 L 134.59 63.41 L 134.94 63.59 L 135.28 63.78 L 135.62 63.98 L 135.95 64.19 L 136.27 64.40 L 136.59 64.62 L 136.90 64.85 L 137.21 65.08 L 137.50 65.32 L 137.80 65.57 L 138.09 65.83 L 138.37 66.09 L 138.64 66.36 L 138.91 66.63 L 139.17 66.91 L 139.43 67.20 L 139.68 67.50 L 139.92 67.79 L 140.15 68.10 L 140.38 68.41 L 140.60 68.73 L 140.81 69.05 L 141.02 69.38 L 141.22 69.72 L 141.41 70.06 L 141.59 70.41 L 141.76 70.76 L 141.93 71.12 L 142.08 71.49 L 142.23 71.86 L 142.36 72.24 L 142.49 72.62 L 142.60 73.00 L 142.71 73.39 L 142.80 73.79 L 142.88 74.19 L 142.94 74.59 L 143.00 75.00 L 143.04 75.41 L 143.07 75.82 L 143.09 76.24 L 143.09 76.65 L 143.08 77.07 L 143.05 77.49 L 143.01 77.91 L 142.96 78.33 L 142.89 78.74 L 142.80 79.16 L 142.70 79.57 L 142.58 79.98 L 142.45 80.39 L 142.31 80.79 L 142.15 81.19 L 141.97 81.58 L 141.78 81.97 L 141.57 82.34 L 141.35 82.71 L 141.12 83.08 L 140.87 83.43 L 140.61 83.77 L 140.33 84.11 L 140.04 84.43 L 139.74 84.74 L 139.43 85.04 L 139.11 85.33 L 138.77 85.61 L 138.43 85.87 L 138.08 86.12 L 137.71 86.35 L 137.34 86.57 L 136.97 86.78 L 136.58 86.97 L 136.19 87.15 L 135.79 87.31 L 135.39 87.45 L 134.98 87.58 L 134.57 87.70 L 134.16 87.80 L 133.74 87.89 L 133.33 87.96 L 132.91 88.01 L 132.49 88.05 L 132.07 88.08 L 131.65 88.09 L 131.24 88.09 L 130.82 88.07 L 130.41 88.04 L 130.00 88.00 L 129.59 87.94 L 129.19 87.88 L 128.79 87.80 L 128.39 87.71 L 128.00 87.60 L 127.62 87.49 L 127.24 87.36 L 126.86 87.23 L 126.49 87.08 L 126.12 86.93 L 125.76 86.76 L 125.41 86.59 L 125.06 86.41 L 124.72 86.22 L 124.38 86.02 L 124.05 85.81 L 123.73 85.60 L 123.41 85.38 L 123.10 85.15 L 122.79 84.92 L 122.50 84.68 L 122.20 84.43 L 121.91 84.17 L 121.63 83.91 L 121.36 83.64 L 121.09 83.37 L 120.83 83.09 L 120.57 82.80 L 120.32 82.50 L 120.08 82.21 L 119.85 81.90 L 119.62 81.59 L 119.40 81.27 L 119.19 80.95 L 118.98 80.62 L 118.78 80.28 L 118.59 79.94 L 118.41 79.59 L 118.24 79.24 L 118.07 78.88 L 117.92 78.51 L 117.77 78.14 L 117.64 77.76 L 117.51 77.38 L 117.40 77.00 L 117.29 76.61 L 117.20 76.21 L 117.12 75.81 L 117.06 75.41 L 117.00 75.00 L 116.96 74.59 L 116.93 74.18 L 116.91 73.76 L 116.91 73.35 L 116.92 72.93 L 116.95 72.51 L 116.99 72.09 L 117.04 71.67 L 117.11 71.26 L 117.20 70.84 L 117.30 70.43 L 117.42 70.02 L 117.55 69.61 L 117.69 69.21 L 117.85 68.81 L 118.03 68.42 L 118.22 68.03 L 118.43 67.66 L 118.65 67.29 L 118.88 66.92 L 119.13 66.57 L 119.39 66.23 L 119.67 65.89 L 119.96 65.57 L 120.26 65.26 L 120.57 64.96 L 120.89 64.67 L 121.23 64.39 L 121.57 64.13 L 121.92 63.88 L 122.29 63.65 L 122.66 63.43 L 123.03 63.22 L 123.42 63.03 L 123.81 62.85 L 124.21 62.69 L 124.61 62.55 L 125.02 62.42 L 125.43 62.30 L 125.84 62.20 L 126.26 62.11 L 126.67 62.04 L 127.09 61.99 L 127.51 61.95 L 127.93 61.92 L 128.35 61.91 L 128.76 61.91 L 129.18 61.93 L 129.59 61.96 L 130.00 62.00 Z" fill="none"></path>
      <path d="M 130.00 60.01 L 130.47 60.07 L 130.95 60.14 L 131.41 60.22 L 131.88 60.32 L 132.34 60.43 L 132.80 60.55 L 133.25 60.68 L 133.70 60.82 L 134.14 60.98 L 134.58 61.14 L 135.01 61.32 L 135.44 61.51 L 135.87 61.70 L 136.29 61.91 L 136.70 62.13 L 137.11 62.36 L 137.51 62.60 L 137.91 62.84 L 138.31 63.10 L 138.70 63.37 L 139.08 63.65 L 139.46 63.94 L 139.83 64.23 L 140.19 64.54 L 140.55 64.86 L 140.90 65.19 L 141.25 65.53 L 141.59 65.88 L 141.91 66.24 L 142.24 66.61 L 142.55 66.99 L 142.85 67.38 L 143.15 67.78 L 143.43 68.19 L 143.71 68.61 L 143.97 69.04 L 144.22 69.48 L 144.46 69.93 L 144.69 70.39 L 144.91 70.86 L 145.11 71.34 L 145.30 71.82 L 145.47 72.32 L 145.63 72.82 L 145.77 73.33 L 145.90 73.84 L 146.01 74.36 L 146.10 74.89 L 146.17 75.42 L 146.23 75.95 L 146.27 76.49 L 146.29 77.03 L 146.30 77.57 L 146.28 78.11 L 146.24 78.65 L 146.19 79.20 L 146.11 79.74 L 146.02 80.27 L 145.91 80.81 L 145.78 81.34 L 145.62 81.86 L 145.45 82.38 L 145.26 82.89 L 145.05 83.40 L 144.83 83.89 L 144.58 84.38 L 144.32 84.85 L 144.04 85.31 L 143.74 85.77 L 143.43 86.21 L 143.10 86.63 L 142.76 87.05 L 142.41 87.44 L 142.03 87.83 L 141.65 88.20 L 141.26 88.55 L 140.85 88.88 L 140.43 89.20 L 140.00 89.50 L 139.57 89.79 L 139.12 90.05 L 138.67 90.30 L 138.21 90.54 L 137.74 90.75 L 137.27 90.95 L 136.80 91.13 L 136.32 91.29 L 135.83 91.43 L 135.35 91.56 L 134.86 91.67 L 134.37 91.76 L 133.88 91.84 L 133.39 91.90 L 132.90 91.94 L 132.41 91.97 L 131.93 91.98 L 131.44 91.98 L 130.96 91.97 L 130.48 91.94 L 130.00 91.89 L 129.53 91.83 L 129.05 91.76 L 128.59 91.68 L 128.12 91.58 L 127.66 91.47 L 127.20 91.35 L 126.75 91.22 L 126.30 91.08 L 125.86 90.92 L 125.42 90.76 L 124.99 90.58 L 124.56 90.39 L 124.13 90.20 L 123.71 89.99 L 123.30 89.77 L 122.89 89.54 L 122.49 89.30 L 122.09 89.06 L 121.69 88.80 L 121.30 88.53 L 120.92 88.25 L 120.54 87.96 L 120.17 87.67 L 119.81 87.36 L 119.45 87.04 L 119.10 86.71 L 118.75 86.37 L 118.41 86.02 L 118.09 85.66 L 117.76 85.29 L 117.45 84.91 L 117.15 84.52 L 116.85 84.12 L 116.57 83.71 L 116.29 83.29 L 116.03 82.86 L 115.78 82.42 L 115.54 81.97 L 115.31 81.51 L 115.09 81.04 L 114.89 80.56 L 114.70 80.08 L 114.53 79.58 L 114.37 79.08 L 114.23 78.57 L 114.10 78.06 L 113.99 77.54 L 113.90 77.01 L 113.83 76.48 L 113.77 75.95 L 113.73 75.41 L 113.71 74.87 L 113.70 74.33 L 113.72 73.79 L 113.76 73.25 L 113.81 72.70 L 113.89 72.16 L 113.98 71.63 L 114.09 71.09 L 114.22 70.56 L 114.38 70.04 L 114.55 69.52 L 114.74 69.01 L 114.95 68.50 L 115.17 68.01 L 115.42 67.52 L 115.68 67.05 L 115.96 66.59 L 116.26 66.13 L 116.57 65.69 L 116.90 65.27 L 117.24 64.85 L 117.59 64.46 L 117.97 64.07 L 118.35 63.70 L 118.74 63.35 L 119.15 63.02 L 119.57 62.70 L 120.00 62.40 L 120.43 62.11 L 120.88 61.85 L 121.33 61.60 L 121.79 61.36 L 122.26 61.15 L 122.73 60.95 L 123.20 60.77 L 123.68 60.61 L 124.17 60.47 L 124.65 60.34 L 125.14 60.23 L 125.63 60.14 L 126.12 60.06 L 126.61 60.00 L 127.10 59.96 L 127.59 59.93 L 128.07 59.92 L 128.56 59.92 L 129.04 59.93 L 129.52 59.96 L 130.00 60.01 Z" fill="none"></path>
      <path d="M 130.00 58.02 L 130.54 58.05 L 131.09 58.10 L 131.63 58.16 L 132.17 58.24 L 132.71 58.33 L 133.24 58.43 L 133.77 58.55 L 134.30 58.68 L 134.83 58.82 L 135.36 58.98 L 135.88 59.15 L 136.40 59.34 L 136.91 59.54 L 137.42 59.75 L 137.93 59.98 L 138.44 60.22 L 138.94 60.48 L 139.43 60.75 L 139.92 61.03 L 140.40 61.33 L 140.88 61.65 L 141.36 61.98 L 141.82 62.33 L 142.28 62.69 L 142.73 63.07 L 143.17 63.46 L 143.60 63.87 L 144.02 64.29 L 144.43 64.73 L 144.84 65.18 L 145.22 65.65 L 145.60 66.14 L 145.96 66.64 L 146.31 67.15 L 146.65 67.68 L 146.96 68.22 L 147.27 68.78 L 147.55 69.35 L 147.82 69.93 L 148.07 70.52 L 148.30 71.12 L 148.51 71.73 L 148.70 72.36 L 148.87 72.99 L 149.02 73.63 L 149.14 74.27 L 149.25 74.92 L 149.33 75.58 L 149.39 76.24 L 149.43 76.90 L 149.44 77.56 L 149.43 78.23 L 149.40 78.89 L 149.34 79.56 L 149.26 80.22 L 149.16 80.87 L 149.03 81.52 L 148.88 82.17 L 148.71 82.81 L 148.51 83.44 L 148.30 84.06 L 148.06 84.67 L 147.80 85.27 L 147.52 85.86 L 147.22 86.44 L 146.90 87.00 L 146.57 87.55 L 146.21 88.08 L 145.84 88.60 L 145.45 89.10 L 145.05 89.59 L 144.63 90.05 L 144.20 90.50 L 143.75 90.94 L 143.29 91.35 L 142.82 91.74 L 142.35 92.12 L 141.86 92.48 L 141.36 92.82 L 140.85 93.14 L 140.34 93.44 L 139.82 93.72 L 139.29 93.98 L 138.76 94.22 L 138.23 94.45 L 137.69 94.65 L 137.14 94.84 L 136.60 95.01 L 136.05 95.17 L 135.50 95.30 L 134.95 95.42 L 134.40 95.53 L 133.85 95.61 L 133.30 95.68 L 132.74 95.74 L 132.19 95.77 L 131.64 95.80 L 131.09 95.81 L 130.55 95.80 L 130.00 95.78 L 129.46 95.75 L 128.91 95.70 L 128.37 95.64 L 127.83 95.56 L 127.29 95.47 L 126.76 95.37 L 126.23 95.25 L 125.70 95.12 L 125.17 94.98 L 124.64 94.82 L 124.12 94.65 L 123.60 94.46 L 123.09 94.26 L 122.58 94.05 L 122.07 93.82 L 121.56 93.58 L 121.06 93.32 L 120.57 93.05 L 120.08 92.77 L 119.60 92.47 L 119.12 92.15 L 118.64 91.82 L 118.18 91.47 L 117.72 91.11 L 117.27 90.73 L 116.83 90.34 L 116.40 89.93 L 115.98 89.51 L 115.57 89.07 L 115.16 88.62 L 114.78 88.15 L 114.40 87.66 L 114.04 87.16 L 113.69 86.65 L 113.35 86.12 L 113.04 85.58 L 112.73 85.02 L 112.45 84.45 L 112.18 83.87 L 111.93 83.28 L 111.70 82.68 L 111.49 82.07 L 111.30 81.44 L 111.13 80.81 L 110.98 80.17 L 110.86 79.53 L 110.75 78.88 L 110.67 78.22 L 110.61 77.56 L 110.57 76.90 L 110.56 76.24 L 110.57 75.57 L 110.60 74.91 L 110.66 74.24 L 110.74 73.58 L 110.84 72.93 L 110.97 72.28 L 111.12 71.63 L 111.29 70.99 L 111.49 70.36 L 111.70 69.74 L 111.94 69.13 L 112.20 68.53 L 112.48 67.94 L 112.78 67.36 L 113.10 66.80 L 113.43 66.25 L 113.79 65.72 L 114.16 65.20 L 114.55 64.70 L 114.95 64.21 L 115.37 63.75 L 115.80 63.30 L 116.25 62.86 L 116.71 62.45 L 117.18 62.06 L 117.65 61.68 L 118.14 61.32 L 118.64 60.98 L 119.15 60.66 L 119.66 60.36 L 120.18 60.08 L 120.71 59.82 L 121.24 59.58 L 121.77 59.35 L 122.31 59.15 L 122.86 58.96 L 123.40 58.79 L 123.95 58.63 L 124.50 58.50 L 125.05 58.38 L 125.60 58.27 L 126.15 58.19 L 126.70 58.12 L 127.26 58.06 L 127.81 58.03 L 128.36 58.00 L 128.91 57.99 L 129.45 58.00 L 130.00 58.02 Z" fill="none"></path>
      <path d="M 130.00 55.72 L 130.62 55.71 L 131.25 55.72 L 131.88 55.74 L 132.50 55.78 L 133.13 55.83 L 133.76 55.90 L 134.39 56.00 L 135.01 56.10 L 135.64 56.23 L 136.26 56.38 L 136.89 56.54 L 137.51 56.73 L 138.13 56.93 L 138.74 57.16 L 139.36 57.40 L 139.96 57.66 L 140.57 57.95 L 141.16 58.26 L 141.76 58.59 L 142.34 58.93 L 142.92 59.31 L 143.48 59.70 L 144.04 60.11 L 144.59 60.55 L 145.12 61.01 L 145.65 61.49 L 146.16 61.99 L 146.65 62.51 L 147.13 63.05 L 147.60 63.61 L 148.05 64.19 L 148.48 64.79 L 148.89 65.41 L 149.28 66.04 L 149.65 66.70 L 150.00 67.37 L 150.33 68.05 L 150.64 68.75 L 150.92 69.46 L 151.18 70.19 L 151.41 70.92 L 151.62 71.67 L 151.80 72.42 L 151.96 73.19 L 152.09 73.95 L 152.19 74.73 L 152.27 75.51 L 152.32 76.29 L 152.34 77.07 L 152.33 77.85 L 152.30 78.63 L 152.24 79.41 L 152.16 80.18 L 152.05 80.95 L 151.91 81.72 L 151.75 82.47 L 151.56 83.22 L 151.35 83.96 L 151.11 84.68 L 150.86 85.40 L 150.57 86.10 L 150.27 86.79 L 149.95 87.46 L 149.60 88.12 L 149.24 88.77 L 148.86 89.40 L 148.46 90.01 L 148.04 90.60 L 147.61 91.18 L 147.16 91.73 L 146.69 92.27 L 146.22 92.79 L 145.73 93.29 L 145.23 93.78 L 144.72 94.24 L 144.19 94.68 L 143.66 95.11 L 143.12 95.52 L 142.57 95.90 L 142.02 96.27 L 141.45 96.62 L 140.89 96.95 L 140.31 97.27 L 139.73 97.56 L 139.14 97.84 L 138.55 98.10 L 137.96 98.34 L 137.36 98.57 L 136.76 98.77 L 136.16 98.96 L 135.55 99.14 L 134.94 99.30 L 134.33 99.44 L 133.72 99.56 L 133.10 99.67 L 132.49 99.77 L 131.87 99.84 L 131.25 99.90 L 130.62 99.95 L 130.00 99.98 L 129.38 99.99 L 128.75 99.98 L 128.12 99.96 L 127.50 99.92 L 126.87 99.87 L 126.24 99.80 L 125.61 99.70 L 124.99 99.60 L 124.36 99.47 L 123.74 99.32 L 123.11 99.16 L 122.49 98.97 L 121.87 98.77 L 121.26 98.54 L 120.64 98.30 L 120.04 98.04 L 119.43 97.75 L 118.84 97.44 L 118.24 97.11 L 117.66 96.77 L 117.08 96.39 L 116.52 96.00 L 115.96 95.59 L 115.41 95.15 L 114.88 94.69 L 114.35 94.21 L 113.84 93.71 L 113.35 93.19 L 112.87 92.65 L 112.40 92.09 L 111.95 91.51 L 111.52 90.91 L 111.11 90.29 L 110.72 89.66 L 110.35 89.00 L 110.00 88.33 L 109.67 87.65 L 109.36 86.95 L 109.08 86.24 L 108.82 85.51 L 108.59 84.78 L 108.38 84.03 L 108.20 83.28 L 108.04 82.51 L 107.91 81.75 L 107.81 80.97 L 107.73 80.19 L 107.68 79.41 L 107.66 78.63 L 107.67 77.85 L 107.70 77.07 L 107.76 76.29 L 107.84 75.52 L 107.95 74.75 L 108.09 73.98 L 108.25 73.23 L 108.44 72.48 L 108.65 71.74 L 108.89 71.02 L 109.14 70.30 L 109.43 69.60 L 109.73 68.91 L 110.05 68.24 L 110.40 67.58 L 110.76 66.93 L 111.14 66.30 L 111.54 65.69 L 111.96 65.10 L 112.39 64.52 L 112.84 63.97 L 113.31 63.43 L 113.78 62.91 L 114.27 62.41 L 114.77 61.92 L 115.28 61.46 L 115.81 61.02 L 116.34 60.59 L 116.88 60.18 L 117.43 59.80 L 117.98 59.43 L 118.55 59.08 L 119.11 58.75 L 119.69 58.43 L 120.27 58.14 L 120.86 57.86 L 121.45 57.60 L 122.04 57.36 L 122.64 57.13 L 123.24 56.93 L 123.84 56.74 L 124.45 56.56 L 125.06 56.40 L 125.67 56.26 L 126.28 56.14 L 126.90 56.03 L 127.51 55.93 L 128.13 55.86 L 128.75 55.80 L 129.38 55.75 L 130.00 55.72 Z" fill="none"></path>
      <path d="M 130.00 52.89 L 130.72 52.83 L 131.44 52.79 L 132.17 52.77 L 132.90 52.77 L 133.63 52.80 L 134.36 52.85 L 135.10 52.92 L 135.83 53.02 L 136.57 53.14 L 137.30 53.30 L 138.04 53.47 L 138.77 53.68 L 139.49 53.91 L 140.22 54.17 L 140.93 54.45 L 141.65 54.77 L 142.35 55.11 L 143.04 55.48 L 143.73 55.88 L 144.40 56.31 L 145.07 56.77 L 145.71 57.25 L 146.35 57.76 L 146.97 58.30 L 147.57 58.86 L 148.16 59.45 L 148.73 60.07 L 149.27 60.71 L 149.80 61.38 L 150.31 62.06 L 150.79 62.77 L 151.25 63.50 L 151.68 64.25 L 152.09 65.02 L 152.47 65.81 L 152.83 66.62 L 153.15 67.43 L 153.45 68.27 L 153.72 69.11 L 153.97 69.97 L 154.18 70.83 L 154.36 71.70 L 154.52 72.58 L 154.64 73.47 L 154.73 74.36 L 154.80 75.25 L 154.83 76.14 L 154.84 77.03 L 154.82 77.92 L 154.76 78.80 L 154.68 79.68 L 154.58 80.55 L 154.44 81.42 L 154.28 82.28 L 154.09 83.13 L 153.88 83.97 L 153.64 84.79 L 153.38 85.61 L 153.10 86.41 L 152.79 87.20 L 152.46 87.97 L 152.11 88.73 L 151.74 89.47 L 151.36 90.20 L 150.95 90.91 L 150.53 91.60 L 150.09 92.28 L 149.64 92.94 L 149.17 93.58 L 148.69 94.20 L 148.19 94.81 L 147.68 95.39 L 147.16 95.96 L 146.63 96.51 L 146.08 97.05 L 145.53 97.56 L 144.97 98.06 L 144.40 98.54 L 143.82 99.00 L 143.23 99.45 L 142.63 99.88 L 142.02 100.29 L 141.41 100.69 L 140.79 101.06 L 140.16 101.42 L 139.53 101.77 L 138.89 102.09 L 138.24 102.40 L 137.58 102.69 L 136.92 102.97 L 136.26 103.23 L 135.58 103.47 L 134.90 103.69 L 134.22 103.89 L 133.53 104.08 L 132.83 104.24 L 132.13 104.39 L 131.43 104.51 L 130.72 104.62 L 130.00 104.71 L 129.28 104.77 L 128.56 104.81 L 127.83 104.83 L 127.10 104.83 L 126.37 104.80 L 125.64 104.75 L 124.90 104.68 L 124.17 104.58 L 123.43 104.46 L 122.70 104.30 L 121.96 104.13 L 121.23 103.92 L 120.51 103.69 L 119.78 103.43 L 119.07 103.15 L 118.35 102.83 L 117.65 102.49 L 116.96 102.12 L 116.27 101.72 L 115.60 101.29 L 114.93 100.83 L 114.29 100.35 L 113.65 99.84 L 113.03 99.30 L 112.43 98.74 L 111.84 98.15 L 111.27 97.53 L 110.73 96.89 L 110.20 96.22 L 109.69 95.54 L 109.21 94.83 L 108.75 94.10 L 108.32 93.35 L 107.91 92.58 L 107.53 91.79 L 107.17 90.98 L 106.85 90.17 L 106.55 89.33 L 106.28 88.49 L 106.03 87.63 L 105.82 86.77 L 105.64 85.90 L 105.48 85.02 L 105.36 84.13 L 105.27 83.24 L 105.20 82.35 L 105.17 81.46 L 105.16 80.57 L 105.18 79.68 L 105.24 78.80 L 105.32 77.92 L 105.42 77.05 L 105.56 76.18 L 105.72 75.32 L 105.91 74.47 L 106.12 73.63 L 106.36 72.81 L 106.62 71.99 L 106.90 71.19 L 107.21 70.40 L 107.54 69.63 L 107.89 68.87 L 108.26 68.13 L 108.64 67.40 L 109.05 66.69 L 109.47 66.00 L 109.91 65.32 L 110.36 64.66 L 110.83 64.02 L 111.31 63.40 L 111.81 62.79 L 112.32 62.21 L 112.84 61.64 L 113.37 61.09 L 113.92 60.55 L 114.47 60.04 L 115.03 59.54 L 115.60 59.06 L 116.18 58.60 L 116.77 58.15 L 117.37 57.72 L 117.98 57.31 L 118.59 56.91 L 119.21 56.54 L 119.84 56.18 L 120.47 55.83 L 121.11 55.51 L 121.76 55.20 L 122.42 54.91 L 123.08 54.63 L 123.74 54.37 L 124.42 54.13 L 125.10 53.91 L 125.78 53.71 L 126.47 53.52 L 127.17 53.36 L 127.87 53.21 L 128.57 53.09 L 129.28 52.98 L 130.00 52.89 Z" fill="none"></path>
      <path d="M 130.00 49.51 L 130.83 49.41 L 131.66 49.34 L 132.50 49.30 L 133.34 49.29 L 134.19 49.32 L 135.04 49.37 L 135.88 49.46 L 136.73 49.58 L 137.58 49.74 L 138.42 49.93 L 139.26 50.15 L 140.09 50.41 L 140.92 50.71 L 141.74 51.04 L 142.55 51.40 L 143.35 51.80 L 144.14 52.24 L 144.91 52.71 L 145.67 53.21 L 146.42 53.75 L 147.14 54.31 L 147.85 54.92 L 148.54 55.55 L 149.21 56.21 L 149.85 56.90 L 150.47 57.62 L 151.07 58.37 L 151.64 59.14 L 152.19 59.94 L 152.71 60.76 L 153.20 61.61 L 153.66 62.47 L 154.09 63.35 L 154.49 64.25 L 154.86 65.17 L 155.20 66.10 L 155.51 67.04 L 155.79 68.00 L 156.04 68.96 L 156.26 69.93 L 156.44 70.91 L 156.59 71.89 L 156.71 72.88 L 156.80 73.86 L 156.86 74.85 L 156.90 75.84 L 156.90 76.82 L 156.87 77.80 L 156.81 78.78 L 156.72 79.75 L 156.61 80.71 L 156.47 81.67 L 156.31 82.61 L 156.12 83.55 L 155.90 84.47 L 155.67 85.39 L 155.41 86.29 L 155.12 87.17 L 154.82 88.05 L 154.50 88.91 L 154.15 89.76 L 153.79 90.59 L 153.41 91.41 L 153.01 92.21 L 152.59 93.00 L 152.16 93.77 L 151.72 94.53 L 151.25 95.27 L 150.78 96.00 L 150.28 96.71 L 149.78 97.41 L 149.26 98.09 L 148.73 98.75 L 148.18 99.40 L 147.63 100.04 L 147.06 100.65 L 146.47 101.26 L 145.88 101.84 L 145.27 102.41 L 144.66 102.97 L 144.03 103.50 L 143.39 104.03 L 142.73 104.53 L 142.07 105.02 L 141.39 105.48 L 140.71 105.94 L 140.01 106.37 L 139.30 106.78 L 138.58 107.17 L 137.85 107.55 L 137.11 107.90 L 136.35 108.23 L 135.59 108.53 L 134.82 108.82 L 134.04 109.08 L 133.25 109.31 L 132.45 109.52 L 131.64 109.71 L 130.82 109.86 L 130.00 109.99 L 129.17 110.09 L 128.34 110.16 L 127.50 110.20 L 126.66 110.21 L 125.81 110.18 L 124.96 110.13 L 124.12 110.04 L 123.27 109.92 L 122.42 109.76 L 121.58 109.57 L 120.74 109.35 L 119.91 109.09 L 119.08 108.79 L 118.26 108.46 L 117.45 108.10 L 116.65 107.70 L 115.86 107.26 L 115.09 106.79 L 114.33 106.29 L 113.58 105.75 L 112.86 105.19 L 112.15 104.58 L 111.46 103.95 L 110.79 103.29 L 110.15 102.60 L 109.53 101.88 L 108.93 101.13 L 108.36 100.36 L 107.81 99.56 L 107.29 98.74 L 106.80 97.89 L 106.34 97.03 L 105.91 96.15 L 105.51 95.25 L 105.14 94.33 L 104.80 93.40 L 104.49 92.46 L 104.21 91.50 L 103.96 90.54 L 103.74 89.57 L 103.56 88.59 L 103.41 87.61 L 103.29 86.62 L 103.20 85.64 L 103.14 84.65 L 103.10 83.66 L 103.10 82.68 L 103.13 81.70 L 103.19 80.72 L 103.28 79.75 L 103.39 78.79 L 103.53 77.83 L 103.69 76.89 L 103.88 75.95 L 104.10 75.03 L 104.33 74.11 L 104.59 73.21 L 104.88 72.33 L 105.18 71.45 L 105.50 70.59 L 105.85 69.74 L 106.21 68.91 L 106.59 68.09 L 106.99 67.29 L 107.41 66.50 L 107.84 65.73 L 108.28 64.97 L 108.75 64.23 L 109.22 63.50 L 109.72 62.79 L 110.22 62.09 L 110.74 61.41 L 111.27 60.75 L 111.82 60.10 L 112.37 59.46 L 112.94 58.85 L 113.53 58.24 L 114.12 57.66 L 114.73 57.09 L 115.34 56.53 L 115.97 56.00 L 116.61 55.47 L 117.27 54.97 L 117.93 54.48 L 118.61 54.02 L 119.29 53.56 L 119.99 53.13 L 120.70 52.72 L 121.42 52.33 L 122.15 51.95 L 122.89 51.60 L 123.65 51.27 L 124.41 50.97 L 125.18 50.68 L 125.96 50.42 L 126.75 50.19 L 127.55 49.98 L 128.36 49.79 L 129.18 49.64 L 130.00 49.51 Z" fill="none"></path>
      <path d="M 130.00 45.80 L 130.94 45.70 L 131.89 45.64 L 132.85 45.63 L 133.80 45.65 L 134.76 45.71 L 135.71 45.82 L 136.67 45.96 L 137.62 46.15 L 138.56 46.38 L 139.50 46.65 L 140.43 46.96 L 141.35 47.31 L 142.26 47.71 L 143.16 48.14 L 144.04 48.61 L 144.91 49.13 L 145.75 49.68 L 146.58 50.27 L 147.39 50.90 L 148.18 51.56 L 148.95 52.26 L 149.69 52.99 L 150.41 53.75 L 151.10 54.54 L 151.76 55.36 L 152.39 56.21 L 153.00 57.09 L 153.58 57.99 L 154.12 58.91 L 154.64 59.86 L 155.12 60.82 L 155.58 61.80 L 156.00 62.80 L 156.39 63.81 L 156.74 64.83 L 157.07 65.87 L 157.36 66.91 L 157.62 67.97 L 157.85 69.02 L 158.05 70.09 L 158.22 71.15 L 158.36 72.22 L 158.46 73.29 L 158.54 74.36 L 158.59 75.43 L 158.61 76.49 L 158.61 77.55 L 158.57 78.61 L 158.51 79.66 L 158.42 80.70 L 158.31 81.74 L 158.18 82.76 L 158.02 83.78 L 157.84 84.79 L 157.63 85.80 L 157.41 86.79 L 157.16 87.77 L 156.89 88.74 L 156.60 89.70 L 156.30 90.65 L 155.97 91.59 L 155.62 92.51 L 155.26 93.43 L 154.88 94.33 L 154.48 95.22 L 154.06 96.10 L 153.63 96.97 L 153.18 97.83 L 152.71 98.67 L 152.22 99.50 L 151.72 100.32 L 151.20 101.12 L 150.66 101.91 L 150.11 102.69 L 149.54 103.45 L 148.95 104.20 L 148.34 104.93 L 147.72 105.64 L 147.08 106.34 L 146.43 107.02 L 145.75 107.69 L 145.06 108.33 L 144.35 108.96 L 143.63 109.56 L 142.89 110.15 L 142.13 110.71 L 141.35 111.25 L 140.56 111.76 L 139.75 112.25 L 138.93 112.71 L 138.09 113.14 L 137.24 113.54 L 136.38 113.92 L 135.50 114.26 L 134.61 114.57 L 133.70 114.85 L 132.79 115.09 L 131.87 115.30 L 130.94 115.47 L 130.00 115.60 L 129.06 115.70 L 128.11 115.76 L 127.15 115.77 L 126.20 115.75 L 125.24 115.69 L 124.29 115.58 L 123.33 115.44 L 122.38 115.25 L 121.44 115.02 L 120.50 114.75 L 119.57 114.44 L 118.65 114.09 L 117.74 113.69 L 116.84 113.26 L 115.96 112.79 L 115.09 112.27 L 114.25 111.72 L 113.42 111.13 L 112.61 110.50 L 111.82 109.84 L 111.05 109.14 L 110.31 108.41 L 109.59 107.65 L 108.90 106.86 L 108.24 106.04 L 107.61 105.19 L 107.00 104.31 L 106.42 103.41 L 105.88 102.49 L 105.36 101.54 L 104.88 100.58 L 104.42 99.60 L 104.00 98.60 L 103.61 97.59 L 103.26 96.57 L 102.93 95.53 L 102.64 94.49 L 102.38 93.43 L 102.15 92.38 L 101.95 91.31 L 101.78 90.25 L 101.64 89.18 L 101.54 88.11 L 101.46 87.04 L 101.41 85.97 L 101.39 84.91 L 101.39 83.85 L 101.43 82.79 L 101.49 81.74 L 101.58 80.70 L 101.69 79.66 L 101.82 78.64 L 101.98 77.62 L 102.16 76.61 L 102.37 75.60 L 102.59 74.61 L 102.84 73.63 L 103.11 72.66 L 103.40 71.70 L 103.70 70.75 L 104.03 69.81 L 104.38 68.89 L 104.74 67.97 L 105.12 67.07 L 105.52 66.18 L 105.94 65.30 L 106.37 64.43 L 106.82 63.57 L 107.29 62.73 L 107.78 61.90 L 108.28 61.08 L 108.80 60.28 L 109.34 59.49 L 109.89 58.71 L 110.46 57.95 L 111.05 57.20 L 111.66 56.47 L 112.28 55.76 L 112.92 55.06 L 113.57 54.38 L 114.25 53.71 L 114.94 53.07 L 115.65 52.44 L 116.37 51.84 L 117.11 51.25 L 117.87 50.69 L 118.65 50.15 L 119.44 49.64 L 120.25 49.15 L 121.07 48.69 L 121.91 48.26 L 122.76 47.86 L 123.62 47.48 L 124.50 47.14 L 125.39 46.83 L 126.30 46.55 L 127.21 46.31 L 128.13 46.10 L 129.06 45.93 L 130.00 45.80 Z" fill="none"></path>
      <path d="M 130.00 42.19 L 131.06 42.14 L 132.11 42.14 L 133.17 42.19 L 134.23 42.29 L 135.28 42.43 L 136.33 42.62 L 137.38 42.86 L 138.41 43.15 L 139.43 43.48 L 140.45 43.86 L 141.44 44.28 L 142.43 44.75 L 143.39 45.26 L 144.34 45.82 L 145.27 46.42 L 146.18 47.05 L 147.07 47.73 L 147.93 48.44 L 148.77 49.19 L 149.58 49.97 L 150.36 50.79 L 151.12 51.64 L 151.85 52.52 L 152.55 53.42 L 153.22 54.35 L 153.86 55.31 L 154.47 56.29 L 155.05 57.29 L 155.60 58.31 L 156.11 59.35 L 156.60 60.40 L 157.05 61.47 L 157.47 62.55 L 157.87 63.64 L 158.23 64.74 L 158.56 65.85 L 158.86 66.97 L 159.13 68.09 L 159.37 69.22 L 159.58 70.35 L 159.76 71.48 L 159.92 72.62 L 160.05 73.75 L 160.15 74.89 L 160.23 76.02 L 160.28 77.15 L 160.30 78.28 L 160.30 79.41 L 160.28 80.53 L 160.23 81.65 L 160.16 82.76 L 160.07 83.87 L 159.95 84.98 L 159.81 86.08 L 159.65 87.17 L 159.47 88.26 L 159.27 89.34 L 159.04 90.42 L 158.80 91.49 L 158.53 92.55 L 158.24 93.60 L 157.93 94.65 L 157.60 95.69 L 157.25 96.72 L 156.87 97.75 L 156.48 98.76 L 156.06 99.77 L 155.62 100.76 L 155.15 101.75 L 154.67 102.72 L 154.16 103.68 L 153.63 104.63 L 153.07 105.56 L 152.50 106.48 L 151.89 107.39 L 151.27 108.27 L 150.62 109.14 L 149.95 109.99 L 149.25 110.82 L 148.53 111.63 L 147.79 112.41 L 147.02 113.17 L 146.23 113.91 L 145.42 114.62 L 144.58 115.29 L 143.73 115.94 L 142.85 116.56 L 141.95 117.14 L 141.04 117.69 L 140.10 118.21 L 139.15 118.68 L 138.18 119.12 L 137.20 119.52 L 136.20 119.88 L 135.19 120.19 L 134.17 120.47 L 133.14 120.70 L 132.10 120.88 L 131.05 121.02 L 130.00 121.11 L 128.94 121.16 L 127.89 121.16 L 126.83 121.11 L 125.77 121.01 L 124.72 120.87 L 123.67 120.68 L 122.62 120.44 L 121.59 120.15 L 120.57 119.82 L 119.55 119.44 L 118.56 119.02 L 117.57 118.55 L 116.61 118.04 L 115.66 117.48 L 114.73 116.88 L 113.82 116.25 L 112.93 115.57 L 112.07 114.86 L 111.23 114.11 L 110.42 113.33 L 109.64 112.51 L 108.88 111.66 L 108.15 110.78 L 107.45 109.88 L 106.78 108.95 L 106.14 107.99 L 105.53 107.01 L 104.95 106.01 L 104.40 104.99 L 103.89 103.95 L 103.40 102.90 L 102.95 101.83 L 102.53 100.75 L 102.13 99.66 L 101.77 98.56 L 101.44 97.45 L 101.14 96.33 L 100.87 95.21 L 100.63 94.08 L 100.42 92.95 L 100.24 91.82 L 100.08 90.68 L 99.95 89.55 L 99.85 88.41 L 99.77 87.28 L 99.72 86.15 L 99.70 85.02 L 99.70 83.89 L 99.72 82.77 L 99.77 81.65 L 99.84 80.54 L 99.93 79.43 L 100.05 78.32 L 100.19 77.22 L 100.35 76.13 L 100.53 75.04 L 100.73 73.96 L 100.96 72.88 L 101.20 71.81 L 101.47 70.75 L 101.76 69.70 L 102.07 68.65 L 102.40 67.61 L 102.75 66.58 L 103.13 65.55 L 103.52 64.54 L 103.94 63.53 L 104.38 62.54 L 104.85 61.55 L 105.33 60.58 L 105.84 59.62 L 106.37 58.67 L 106.93 57.74 L 107.50 56.82 L 108.11 55.91 L 108.73 55.03 L 109.38 54.16 L 110.05 53.31 L 110.75 52.48 L 111.47 51.67 L 112.21 50.89 L 112.98 50.13 L 113.77 49.39 L 114.58 48.68 L 115.42 48.01 L 116.27 47.36 L 117.15 46.74 L 118.05 46.16 L 118.96 45.61 L 119.90 45.09 L 120.85 44.62 L 121.82 44.18 L 122.80 43.78 L 123.80 43.42 L 124.81 43.11 L 125.83 42.83 L 126.86 42.60 L 127.90 42.42 L 128.95 42.28 L 130.00 42.19 Z" fill="none"></path>
      <path d="M 130.00 39.15 L 131.15 39.19 L 132.30 39.28 L 133.44 39.43 L 134.58 39.62 L 135.71 39.87 L 136.83 40.17 L 137.94 40.51 L 139.03 40.91 L 140.11 41.35 L 141.18 41.84 L 142.22 42.38 L 143.25 42.96 L 144.25 43.58 L 145.23 44.24 L 146.19 44.94 L 147.13 45.68 L 148.04 46.46 L 148.92 47.27 L 149.78 48.11 L 150.61 48.98 L 151.41 49.89 L 152.19 50.82 L 152.93 51.78 L 153.65 52.76 L 154.34 53.76 L 155.00 54.79 L 155.62 55.83 L 156.22 56.89 L 156.79 57.97 L 157.34 59.07 L 157.85 60.17 L 158.33 61.29 L 158.79 62.43 L 159.21 63.57 L 159.61 64.72 L 159.99 65.88 L 160.33 67.05 L 160.65 68.22 L 160.95 69.40 L 161.21 70.58 L 161.46 71.77 L 161.67 72.96 L 161.87 74.16 L 162.03 75.36 L 162.18 76.56 L 162.30 77.77 L 162.39 78.97 L 162.46 80.18 L 162.51 81.39 L 162.53 82.60 L 162.53 83.81 L 162.51 85.02 L 162.46 86.24 L 162.38 87.45 L 162.29 88.66 L 162.16 89.87 L 162.02 91.08 L 161.84 92.29 L 161.64 93.49 L 161.42 94.70 L 161.16 95.90 L 160.88 97.09 L 160.58 98.28 L 160.24 99.46 L 159.88 100.64 L 159.48 101.81 L 159.06 102.97 L 158.61 104.11 L 158.13 105.25 L 157.61 106.37 L 157.07 107.48 L 156.50 108.58 L 155.89 109.65 L 155.26 110.71 L 154.59 111.74 L 153.90 112.76 L 153.17 113.75 L 152.42 114.71 L 151.63 115.64 L 150.81 116.55 L 149.97 117.42 L 149.10 118.26 L 148.20 119.07 L 147.28 119.84 L 146.33 120.57 L 145.35 121.26 L 144.36 121.91 L 143.34 122.52 L 142.30 123.08 L 141.24 123.60 L 140.17 124.07 L 139.08 124.49 L 137.97 124.87 L 136.86 125.19 L 135.73 125.46 L 134.59 125.68 L 133.45 125.85 L 132.30 125.97 L 131.15 126.04 L 130.00 126.05 L 128.85 126.01 L 127.70 125.92 L 126.56 125.77 L 125.42 125.58 L 124.29 125.33 L 123.17 125.03 L 122.06 124.69 L 120.97 124.29 L 119.89 123.85 L 118.82 123.36 L 117.78 122.82 L 116.75 122.24 L 115.75 121.62 L 114.77 120.96 L 113.81 120.26 L 112.87 119.52 L 111.96 118.74 L 111.08 117.93 L 110.22 117.09 L 109.39 116.22 L 108.59 115.31 L 107.81 114.38 L 107.07 113.42 L 106.35 112.44 L 105.66 111.44 L 105.00 110.41 L 104.38 109.37 L 103.78 108.31 L 103.21 107.23 L 102.66 106.13 L 102.15 105.03 L 101.67 103.91 L 101.21 102.77 L 100.79 101.63 L 100.39 100.48 L 100.01 99.32 L 99.67 98.15 L 99.35 96.98 L 99.05 95.80 L 98.79 94.62 L 98.54 93.43 L 98.33 92.24 L 98.13 91.04 L 97.97 89.84 L 97.82 88.64 L 97.70 87.43 L 97.61 86.23 L 97.54 85.02 L 97.49 83.81 L 97.47 82.60 L 97.47 81.39 L 97.49 80.18 L 97.54 78.96 L 97.62 77.75 L 97.71 76.54 L 97.84 75.33 L 97.98 74.12 L 98.16 72.91 L 98.36 71.71 L 98.58 70.50 L 98.84 69.30 L 99.12 68.11 L 99.42 66.92 L 99.76 65.74 L 100.12 64.56 L 100.52 63.39 L 100.94 62.23 L 101.39 61.09 L 101.87 59.95 L 102.39 58.83 L 102.93 57.72 L 103.50 56.62 L 104.11 55.55 L 104.74 54.49 L 105.41 53.46 L 106.10 52.44 L 106.83 51.45 L 107.58 50.49 L 108.37 49.56 L 109.19 48.65 L 110.03 47.78 L 110.90 46.94 L 111.80 46.13 L 112.72 45.36 L 113.67 44.63 L 114.65 43.94 L 115.64 43.29 L 116.66 42.68 L 117.70 42.12 L 118.76 41.60 L 119.83 41.13 L 120.92 40.71 L 122.03 40.33 L 123.14 40.01 L 124.27 39.74 L 125.41 39.52 L 126.55 39.35 L 127.70 39.23 L 128.85 39.16 L 130.00 39.15 Z" fill="none"></path>
      <path d="M 130.00 36.99 L 131.22 37.12 L 132.44 37.31 L 133.65 37.55 L 134.84 37.84 L 136.02 38.18 L 137.19 38.57 L 138.35 39.00 L 139.48 39.49 L 140.60 40.02 L 141.70 40.59 L 142.78 41.20 L 143.84 41.86 L 144.87 42.55 L 145.88 43.28 L 146.87 44.04 L 147.84 44.84 L 148.78 45.67 L 149.69 46.53 L 150.58 47.42 L 151.44 48.34 L 152.28 49.28 L 153.09 50.25 L 153.88 51.24 L 154.64 52.25 L 155.37 53.28 L 156.08 54.33 L 156.76 55.40 L 157.42 56.49 L 158.05 57.60 L 158.65 58.72 L 159.23 59.85 L 159.79 61.00 L 160.32 62.16 L 160.82 63.33 L 161.30 64.52 L 161.76 65.72 L 162.20 66.93 L 162.60 68.15 L 162.99 69.38 L 163.35 70.62 L 163.69 71.87 L 164.00 73.14 L 164.28 74.41 L 164.55 75.69 L 164.78 76.98 L 164.99 78.28 L 165.18 79.58 L 165.34 80.90 L 165.47 82.22 L 165.57 83.55 L 165.65 84.89 L 165.69 86.23 L 165.71 87.58 L 165.69 88.93 L 165.65 90.29 L 165.57 91.65 L 165.46 93.01 L 165.32 94.37 L 165.15 95.73 L 164.94 97.09 L 164.69 98.45 L 164.41 99.80 L 164.10 101.15 L 163.74 102.49 L 163.35 103.82 L 162.93 105.14 L 162.46 106.45 L 161.96 107.75 L 161.42 109.02 L 160.84 110.28 L 160.22 111.52 L 159.57 112.73 L 158.87 113.92 L 158.14 115.08 L 157.38 116.21 L 156.58 117.32 L 155.74 118.39 L 154.87 119.42 L 153.97 120.41 L 153.03 121.37 L 152.07 122.29 L 151.07 123.16 L 150.04 123.99 L 148.99 124.77 L 147.92 125.50 L 146.82 126.19 L 145.70 126.82 L 144.55 127.40 L 143.39 127.93 L 142.22 128.41 L 141.03 128.83 L 139.82 129.19 L 138.61 129.50 L 137.39 129.76 L 136.16 129.96 L 134.93 130.10 L 133.70 130.19 L 132.46 130.22 L 131.23 130.19 L 130.00 130.11 L 128.78 129.98 L 127.56 129.79 L 126.35 129.55 L 125.16 129.26 L 123.98 128.92 L 122.81 128.53 L 121.65 128.10 L 120.52 127.61 L 119.40 127.08 L 118.30 126.51 L 117.22 125.90 L 116.16 125.24 L 115.13 124.55 L 114.12 123.82 L 113.13 123.06 L 112.16 122.26 L 111.22 121.43 L 110.31 120.57 L 109.42 119.68 L 108.56 118.76 L 107.72 117.82 L 106.91 116.85 L 106.12 115.86 L 105.36 114.85 L 104.63 113.82 L 103.92 112.77 L 103.24 111.70 L 102.58 110.61 L 101.95 109.50 L 101.35 108.38 L 100.77 107.25 L 100.21 106.10 L 99.68 104.94 L 99.18 103.77 L 98.70 102.58 L 98.24 101.38 L 97.80 100.17 L 97.40 98.95 L 97.01 97.72 L 96.65 96.48 L 96.31 95.23 L 96.00 93.96 L 95.72 92.69 L 95.45 91.41 L 95.22 90.12 L 95.01 88.82 L 94.82 87.52 L 94.66 86.20 L 94.53 84.88 L 94.43 83.55 L 94.35 82.21 L 94.31 80.87 L 94.29 79.52 L 94.31 78.17 L 94.35 76.81 L 94.43 75.45 L 94.54 74.09 L 94.68 72.73 L 94.85 71.37 L 95.06 70.01 L 95.31 68.65 L 95.59 67.30 L 95.90 65.95 L 96.26 64.61 L 96.65 63.28 L 97.07 61.96 L 97.54 60.65 L 98.04 59.35 L 98.58 58.08 L 99.16 56.82 L 99.78 55.58 L 100.43 54.37 L 101.13 53.18 L 101.86 52.02 L 102.62 50.89 L 103.42 49.78 L 104.26 48.71 L 105.13 47.68 L 106.03 46.69 L 106.97 45.73 L 107.93 44.81 L 108.93 43.94 L 109.96 43.11 L 111.01 42.33 L 112.08 41.60 L 113.18 40.91 L 114.30 40.28 L 115.45 39.70 L 116.61 39.17 L 117.78 38.69 L 118.97 38.27 L 120.18 37.91 L 121.39 37.60 L 122.61 37.34 L 123.84 37.14 L 125.07 37.00 L 126.30 36.91 L 127.54 36.88 L 128.77 36.91 L 130.00 36.99 Z" fill="none"></path>
      <path d="M 130.00 35.70 L 131.27 35.89 L 132.54 36.14 L 133.79 36.44 L 135.02 36.79 L 136.25 37.18 L 137.45 37.62 L 138.64 38.09 L 139.82 38.62 L 140.97 39.18 L 142.11 39.78 L 143.23 40.41 L 144.32 41.09 L 145.40 41.79 L 146.46 42.53 L 147.49 43.30 L 148.51 44.11 L 149.50 44.94 L 150.47 45.80 L 151.42 46.68 L 152.35 47.59 L 153.25 48.53 L 154.13 49.49 L 155.00 50.48 L 155.84 51.48 L 156.65 52.51 L 157.45 53.57 L 158.23 54.64 L 158.98 55.73 L 159.71 56.84 L 160.42 57.98 L 161.11 59.13 L 161.77 60.30 L 162.41 61.50 L 163.03 62.71 L 163.63 63.94 L 164.20 65.19 L 164.75 66.46 L 165.27 67.74 L 165.77 69.05 L 166.24 70.37 L 166.68 71.71 L 167.10 73.07 L 167.49 74.44 L 167.85 75.84 L 168.17 77.24 L 168.47 78.67 L 168.74 80.11 L 168.97 81.56 L 169.17 83.02 L 169.33 84.50 L 169.46 85.99 L 169.55 87.49 L 169.60 88.99 L 169.61 90.50 L 169.58 92.02 L 169.51 93.54 L 169.40 95.07 L 169.25 96.59 L 169.05 98.12 L 168.81 99.63 L 168.53 101.15 L 168.20 102.65 L 167.83 104.14 L 167.41 105.63 L 166.95 107.09 L 166.44 108.54 L 165.89 109.97 L 165.29 111.38 L 164.65 112.76 L 163.97 114.11 L 163.24 115.44 L 162.47 116.73 L 161.66 117.99 L 160.80 119.21 L 159.91 120.40 L 158.99 121.54 L 158.02 122.64 L 157.02 123.69 L 155.99 124.70 L 154.92 125.66 L 153.83 126.57 L 152.70 127.43 L 151.55 128.24 L 150.38 128.99 L 149.18 129.68 L 147.97 130.32 L 146.74 130.91 L 145.49 131.43 L 144.22 131.90 L 142.95 132.32 L 141.66 132.67 L 140.37 132.97 L 139.07 133.20 L 137.77 133.38 L 136.47 133.51 L 135.17 133.58 L 133.87 133.59 L 132.57 133.55 L 131.28 133.45 L 130.00 133.30 L 128.73 133.11 L 127.46 132.86 L 126.21 132.56 L 124.98 132.21 L 123.75 131.82 L 122.55 131.38 L 121.36 130.91 L 120.18 130.38 L 119.03 129.82 L 117.89 129.22 L 116.77 128.59 L 115.68 127.91 L 114.60 127.21 L 113.54 126.47 L 112.51 125.70 L 111.49 124.89 L 110.50 124.06 L 109.53 123.20 L 108.58 122.32 L 107.65 121.41 L 106.75 120.47 L 105.87 119.51 L 105.00 118.52 L 104.16 117.52 L 103.35 116.49 L 102.55 115.43 L 101.77 114.36 L 101.02 113.27 L 100.29 112.16 L 99.58 111.02 L 98.89 109.87 L 98.23 108.70 L 97.59 107.50 L 96.97 106.29 L 96.37 105.06 L 95.80 103.81 L 95.25 102.54 L 94.73 101.26 L 94.23 99.95 L 93.76 98.63 L 93.32 97.29 L 92.90 95.93 L 92.51 94.56 L 92.15 93.16 L 91.83 91.76 L 91.53 90.33 L 91.26 88.89 L 91.03 87.44 L 90.83 85.98 L 90.67 84.50 L 90.54 83.01 L 90.45 81.51 L 90.40 80.01 L 90.39 78.50 L 90.42 76.98 L 90.49 75.46 L 90.60 73.93 L 90.75 72.41 L 90.95 70.88 L 91.19 69.37 L 91.47 67.85 L 91.80 66.35 L 92.17 64.86 L 92.59 63.37 L 93.05 61.91 L 93.56 60.46 L 94.11 59.03 L 94.71 57.62 L 95.35 56.24 L 96.03 54.89 L 96.76 53.56 L 97.53 52.27 L 98.34 51.01 L 99.20 49.79 L 100.09 48.60 L 101.01 47.46 L 101.98 46.36 L 102.98 45.31 L 104.01 44.30 L 105.08 43.34 L 106.17 42.43 L 107.30 41.57 L 108.45 40.76 L 109.62 40.01 L 110.82 39.32 L 112.03 38.68 L 113.26 38.09 L 114.51 37.57 L 115.78 37.10 L 117.05 36.68 L 118.34 36.33 L 119.63 36.03 L 120.93 35.80 L 122.23 35.62 L 123.53 35.49 L 124.83 35.42 L 126.13 35.41 L 127.43 35.45 L 128.72 35.55 L 130.00 35.70 Z" fill="none"></path>
    </g>
  </g>
</svg>