<svg xmlns="http://www.w3.org/2000/svg" viewBox="0 0 260 168" role="img" aria-label="SecCon">
  <g fill="none" stroke="#2A7DE1" stroke-linecap="round" stroke-linejoin="round">
    <g stroke-width="9">
      <ellipse cx="130" cy="84" rx="112" ry="64"></ellipse>
      <line x1="130" y1="6" x2="130" y2="34"></line>
      <line x1="119" y1="20" x2="141" y2="20"></line>
      <line x1="130" y1="134" x2="130" y2="162"></line>
      <line x1="119" y1="148" x2="141" y2="148"></line>
      <line x1="-11" y1="84" x2="11" y2="84"></line>
      <line x1="249" y1="84" x2="271" y2="84"></line>
    </g>
    <g stroke-width="4.2">
      <path d="M 131.69 77.00 L 131.89 77.21 L 132.06 77.46 L 132.21 77.76 L 132.32 78.09 L 132.39 78.45 L 132.42 78.83 L 132.40 79.24 L 132.33 79.66 L 132.21 80.08 L 132.03 80.50 L 131.80 80.91 L 131.51 81.30 L 131.17 81.67 L 130.78 82.00 L 130.34 82.29 L 129.85 82.53 L 129.33 82.71 L 128.77 82.83 L 128.18 82.89 L 127.57 82.86 L 126.95 82.76 L 126.33 82.58 L 125.70 82.32 L 125.09 81.97 L 124.50 81.54 L 123.94 81.03 L 123.42 80.44 L 122.95 79.77 L 122.53 79.04 L 122.18 78.23 L 121.90 77.37 L 121.70 76.46 L 121.59 75.51 L 121.57 74.53 L 121.64 73.53 L 121.81 72.53 L 122.08 71.52 L 122.45 70.53 L 122.92 69.58 L 123.49 68.66 L 124.15 67.79 L 124.91 66.99 L 125.76 66.27 L 126.68 65.64 L 127.68 65.11 L 128.74 64.68 L 129.86 64.38 L 131.02 64.19 L 132.21 64.15 L 133.41 64.23 L 134.63 64.46 L 135.83 64.84 L 137.01 65.35 L 138.16 66.01 L 139.26 66.80 L 140.29 67.73 L 141.25 68.79 L 142.12 69.96 L 142.89 71.25 L 143.54 72.64 L 144.07 74.12 L 144.46 75.67 L 144.72 77.27 L 144.83 78.92 L 144.78 80.60 L 144.58 82.29 L 144.22 83.96 L 143.70 85.61 L 143.02 87.21 L 142.19 88.75 L 141.21 90.21 L 140.09 91.56 L 138.83 92.80 L 137.45 93.90 L 135.96 94.85 L 134.37 95.64 L 132.70 96.26 L 130.96 96.69 L 129.17 96.93 L 127.35 96.96 L 125.51 96.79" fill="none"></path>
      <path d="M 130.00 62.00 L 130.47 62.05 L 130.94 62.11 L 131.40 62.19 L 131.86 62.28 L 132.31 62.39 L 132.76 62.51 L 133.21 62.64 L 133.65 62.79 L 134.08 62.94 L 134.51 63.11 L 134.94 63.29 L 135.35 63.48 L 135.76 63.69 L 136.17 63.90 L 136.56 64.12 L 136.95 64.35 L 137.33 64.60 L 137.71 64.85 L 138.08 65.11 L 138.44 65.38 L 138.79 65.66 L 139.14 65.95 L 139.48 66.25 L 139.81 66.56 L 140.13 66.87 L 140.44 67.19 L 140.75 67.52 L 141.05 67.86 L 141.34 68.21 L 141.62 68.56 L 141.89 68.92 L 142.15 69.29 L 142.40 69.67 L 142.65 70.05 L 142.88 70.44 L 143.10 70.83 L 143.31 71.24 L 143.52 71.65 L 143.71 72.06 L 143.89 72.49 L 144.06 72.92 L 144.21 73.35 L 144.36 73.79 L 144.49 74.24 L 144.61 74.69 L 144.72 75.14 L 144.81 75.60 L 144.89 76.06 L 144.95 76.53 L 145.00 77.00 L 145.03 77.47 L 145.05 77.95 L 145.06 78.42 L 145.05 78.90 L 145.02 79.38 L 144.98 79.86 L 144.92 80.33 L 144.84 80.81 L 144.75 81.29 L 144.64 81.76 L 144.52 82.23 L 144.38 82.69 L 144.22 83.15 L 144.04 83.61 L 143.85 84.06 L 143.64 84.50 L 143.42 84.94 L 143.18 85.36 L 142.93 85.78 L 142.65 86.19 L 142.37 86.59 L 142.07 86.98 L 141.75 87.36 L 141.43 87.73 L 141.08 88.08 L 140.73 88.43 L 140.36 88.75 L 139.98 89.07 L 139.59 89.37 L 139.19 89.65 L 138.78 89.93 L 138.36 90.18 L 137.94 90.42 L 137.50 90.64 L 137.06 90.85 L 136.61 91.04 L 136.15 91.22 L 135.69 91.38 L 135.23 91.52 L 134.76 91.64 L 134.29 91.75 L 133.81 91.84 L 133.33 91.92 L 132.86 91.98 L 132.38 92.02 L 131.90 92.05 L 131.42 92.06 L 130.95 92.05 L 130.47 92.03 L 130.00 92.00 L 129.53 91.95 L 129.06 91.89 L 128.60 91.81 L 128.14 91.72 L 127.69 91.61 L 127.24 91.49 L 126.79 91.36 L 126.35 91.21 L 125.92 91.06 L 125.49 90.89 L 125.06 90.71 L 124.65 90.52 L 124.24 90.31 L 123.83 90.10 L 123.44 89.88 L 123.05 89.65 L 122.67 89.40 L 122.29 89.15 L 121.92 88.89 L 121.56 88.62 L 121.21 88.34 L 120.86 88.05 L 120.52 87.75 L 120.19 87.44 L 119.87 87.13 L 119.56 86.81 L 119.25 86.48 L 118.95 86.14 L 118.66 85.79 L 118.38 85.44 L 118.11 85.08 L 117.85 84.71 L 117.60 84.33 L 117.35 83.95 L 117.12 83.56 L 116.90 83.17 L 116.69 82.76 L 116.48 82.35 L 116.29 81.94 L 116.11 81.51 L 115.94 81.08 L 115.79 80.65 L 115.64 80.21 L 115.51 79.76 L 115.39 79.31 L 115.28 78.86 L 115.19 78.40 L 115.11 77.94 L 115.05 77.47 L 115.00 77.00 L 114.97 76.53 L 114.95 76.05 L 114.94 75.58 L 114.95 75.10 L 114.98 74.62 L 115.02 74.14 L 115.08 73.67 L 115.16 73.19 L 115.25 72.71 L 115.36 72.24 L 115.48 71.77 L 115.62 71.31 L 115.78 70.85 L 115.96 70.39 L 116.15 69.94 L 116.36 69.50 L 116.58 69.06 L 116.82 68.64 L 117.07 68.22 L 117.35 67.81 L 117.63 67.41 L 117.93 67.02 L 118.25 66.64 L 118.57 66.27 L 118.92 65.92 L 119.27 65.57 L 119.64 65.25 L 120.02 64.93 L 120.41 64.63 L 120.81 64.35 L 121.22 64.07 L 121.64 63.82 L 122.06 63.58 L 122.50 63.36 L 122.94 63.15 L 123.39 62.96 L 123.85 62.78 L 124.31 62.62 L 124.77 62.48 L 125.24 62.36 L 125.71 62.25 L 126.19 62.16 L 126.67 62.08 L 127.14 62.02 L 127.62 61.98 L 128.10 61.95 L 128.58 61.94 L 129.05 61.95 L 129.53 61.97 L 130.00 62.00 Z" fill="none"></path>
      <path d="M 130.00 57.09 L 130.61 57.15 L 131.22 57.23 L 131.82 57.32 L 132.42 57.44 L 133.02 57.57 L 133.61 57.71 L 134.19 57.88 L 134.77 58.05 L 135.35 58.25 L 135.92 58.46 L 136.48 58.69 L 137.04 58.93 L 137.59 59.18 L 138.13 59.45 L 138.67 59.74 L 139.20 60.04 L 139.72 60.36 L 140.24 60.68 L 140.75 61.03 L 141.25 61.38 L 141.74 61.76 L 142.22 62.14 L 142.70 62.54 L 143.16 62.95 L 143.62 63.38 L 144.06 63.82 L 144.50 64.27 L 144.92 64.74 L 145.33 65.22 L 145.74 65.72 L 146.13 66.22 L 146.50 66.74 L 146.87 67.28 L 147.22 67.82 L 147.55 68.38 L 147.87 68.95 L 148.18 69.53 L 148.47 70.13 L 148.74 70.73 L 149.00 71.35 L 149.24 71.97 L 149.46 72.60 L 149.66 73.25 L 149.84 73.90 L 150.00 74.56 L 150.15 75.23 L 150.27 75.90 L 150.37 76.58 L 150.45 77.26 L 150.51 77.95 L 150.54 78.64 L 150.56 79.33 L 150.55 80.03 L 150.51 80.72 L 150.46 81.42 L 150.38 82.11 L 150.28 82.80 L 150.15 83.49 L 150.00 84.17 L 149.83 84.84 L 149.63 85.51 L 149.41 86.17 L 149.17 86.83 L 148.91 87.47 L 148.62 88.10 L 148.31 88.72 L 147.99 89.33 L 147.64 89.93 L 147.27 90.51 L 146.88 91.07 L 146.47 91.62 L 146.05 92.15 L 145.60 92.67 L 145.14 93.17 L 144.67 93.64 L 144.18 94.10 L 143.67 94.54 L 143.15 94.96 L 142.62 95.36 L 142.08 95.74 L 141.52 96.10 L 140.96 96.43 L 140.39 96.74 L 139.81 97.04 L 139.22 97.31 L 138.62 97.55 L 138.02 97.78 L 137.41 97.98 L 136.80 98.17 L 136.19 98.33 L 135.57 98.47 L 134.95 98.59 L 134.33 98.68 L 133.71 98.76 L 133.09 98.82 L 132.47 98.85 L 131.85 98.87 L 131.23 98.87 L 130.61 98.85 L 130.00 98.81 L 129.39 98.75 L 128.78 98.67 L 128.18 98.58 L 127.58 98.46 L 126.98 98.33 L 126.39 98.19 L 125.81 98.02 L 125.23 97.85 L 124.65 97.65 L 124.08 97.44 L 123.52 97.21 L 122.96 96.97 L 122.41 96.72 L 121.87 96.45 L 121.33 96.16 L 120.80 95.86 L 120.28 95.54 L 119.76 95.22 L 119.25 94.87 L 118.75 94.52 L 118.26 94.14 L 117.78 93.76 L 117.30 93.36 L 116.84 92.95 L 116.38 92.52 L 115.94 92.08 L 115.50 91.63 L 115.08 91.16 L 114.67 90.68 L 114.26 90.18 L 113.87 89.68 L 113.50 89.16 L 113.13 88.62 L 112.78 88.08 L 112.45 87.52 L 112.13 86.95 L 111.82 86.37 L 111.53 85.77 L 111.26 85.17 L 111.00 84.55 L 110.76 83.93 L 110.54 83.30 L 110.34 82.65 L 110.16 82.00 L 110.00 81.34 L 109.85 80.67 L 109.73 80.00 L 109.63 79.32 L 109.55 78.64 L 109.49 77.95 L 109.46 77.26 L 109.44 76.57 L 109.45 75.87 L 109.49 75.18 L 109.54 74.48 L 109.62 73.79 L 109.72 73.10 L 109.85 72.41 L 110.00 71.73 L 110.17 71.06 L 110.37 70.39 L 110.59 69.73 L 110.83 69.07 L 111.09 68.43 L 111.38 67.80 L 111.69 67.18 L 112.01 66.57 L 112.36 65.97 L 112.73 65.39 L 113.12 64.83 L 113.53 64.28 L 113.95 63.75 L 114.40 63.23 L 114.86 62.73 L 115.33 62.26 L 115.82 61.80 L 116.33 61.36 L 116.85 60.94 L 117.38 60.54 L 117.92 60.16 L 118.48 59.80 L 119.04 59.47 L 119.61 59.16 L 120.19 58.86 L 120.78 58.59 L 121.38 58.35 L 121.98 58.12 L 122.59 57.92 L 123.20 57.73 L 123.81 57.57 L 124.43 57.43 L 125.05 57.31 L 125.67 57.22 L 126.29 57.14 L 126.91 57.08 L 127.53 57.05 L 128.15 57.03 L 128.77 57.03 L 129.39 57.05 L 130.00 57.09 Z" fill="none"></path>
      <path d="M 130.00 52.27 L 130.75 52.31 L 131.50 52.37 L 132.25 52.45 L 132.99 52.55 L 133.74 52.68 L 134.47 52.82 L 135.21 52.99 L 135.94 53.17 L 136.67 53.38 L 137.39 53.61 L 138.11 53.86 L 138.82 54.13 L 139.53 54.42 L 140.23 54.73 L 140.92 55.07 L 141.61 55.42 L 142.29 55.80 L 142.96 56.19 L 143.62 56.61 L 144.28 57.05 L 144.92 57.51 L 145.56 57.99 L 146.18 58.49 L 146.79 59.02 L 147.39 59.56 L 147.98 60.13 L 148.55 60.72 L 149.11 61.32 L 149.65 61.95 L 150.17 62.60 L 150.68 63.27 L 151.17 63.96 L 151.65 64.66 L 152.10 65.39 L 152.53 66.13 L 152.94 66.90 L 153.33 67.67 L 153.70 68.47 L 154.04 69.28 L 154.36 70.10 L 154.65 70.94 L 154.91 71.79 L 155.15 72.65 L 155.37 73.52 L 155.55 74.40 L 155.71 75.29 L 155.84 76.18 L 155.94 77.09 L 156.01 77.99 L 156.05 78.90 L 156.06 79.81 L 156.04 80.72 L 155.99 81.63 L 155.91 82.54 L 155.80 83.44 L 155.66 84.34 L 155.49 85.24 L 155.29 86.12 L 155.07 87.00 L 154.81 87.86 L 154.53 88.72 L 154.21 89.56 L 153.88 90.39 L 153.51 91.20 L 153.12 92.00 L 152.70 92.78 L 152.26 93.54 L 151.80 94.28 L 151.31 95.00 L 150.80 95.71 L 150.27 96.39 L 149.72 97.04 L 149.15 97.68 L 148.57 98.29 L 147.97 98.88 L 147.35 99.44 L 146.71 99.98 L 146.07 100.50 L 145.40 100.98 L 144.73 101.45 L 144.05 101.89 L 143.35 102.30 L 142.65 102.69 L 141.94 103.05 L 141.22 103.39 L 140.49 103.70 L 139.76 103.98 L 139.02 104.25 L 138.28 104.48 L 137.54 104.70 L 136.79 104.88 L 136.04 105.05 L 135.28 105.19 L 134.53 105.31 L 133.77 105.40 L 133.02 105.47 L 132.26 105.52 L 131.51 105.55 L 130.75 105.55 L 130.00 105.53 L 129.25 105.49 L 128.50 105.43 L 127.75 105.35 L 127.01 105.25 L 126.26 105.12 L 125.53 104.98 L 124.79 104.81 L 124.06 104.63 L 123.33 104.42 L 122.61 104.19 L 121.89 103.94 L 121.18 103.67 L 120.47 103.38 L 119.77 103.07 L 119.08 102.73 L 118.39 102.38 L 117.71 102.00 L 117.04 101.61 L 116.38 101.19 L 115.72 100.75 L 115.08 100.29 L 114.44 99.81 L 113.82 99.31 L 113.21 98.78 L 112.61 98.24 L 112.02 97.67 L 111.45 97.08 L 110.89 96.48 L 110.35 95.85 L 109.83 95.20 L 109.32 94.53 L 108.83 93.84 L 108.35 93.14 L 107.90 92.41 L 107.47 91.67 L 107.06 90.90 L 106.67 90.13 L 106.30 89.33 L 105.96 88.52 L 105.64 87.70 L 105.35 86.86 L 105.09 86.01 L 104.85 85.15 L 104.63 84.28 L 104.45 83.40 L 104.29 82.51 L 104.16 81.62 L 104.06 80.71 L 103.99 79.81 L 103.95 78.90 L 103.94 77.99 L 103.96 77.08 L 104.01 76.17 L 104.09 75.26 L 104.20 74.36 L 104.34 73.46 L 104.51 72.56 L 104.71 71.68 L 104.93 70.80 L 105.19 69.94 L 105.47 69.08 L 105.79 68.24 L 106.12 67.41 L 106.49 66.60 L 106.88 65.80 L 107.30 65.02 L 107.74 64.26 L 108.20 63.52 L 108.69 62.80 L 109.20 62.09 L 109.73 61.41 L 110.28 60.76 L 110.85 60.12 L 111.43 59.51 L 112.03 58.92 L 112.65 58.36 L 113.29 57.82 L 113.93 57.30 L 114.60 56.82 L 115.27 56.35 L 115.95 55.91 L 116.65 55.50 L 117.35 55.11 L 118.06 54.75 L 118.78 54.41 L 119.51 54.10 L 120.24 53.82 L 120.98 53.55 L 121.72 53.32 L 122.46 53.10 L 123.21 52.92 L 123.96 52.75 L 124.72 52.61 L 125.47 52.49 L 126.23 52.40 L 126.98 52.33 L 127.74 52.28 L 128.49 52.25 L 129.25 52.25 L 130.00 52.27 Z" fill="none"></path>
      <path d="M 130.00 47.15 L 130.90 47.14 L 131.80 47.16 L 132.71 47.20 L 133.61 47.27 L 134.51 47.37 L 135.41 47.50 L 136.31 47.65 L 137.21 47.83 L 138.11 48.04 L 139.00 48.28 L 139.89 48.55 L 140.77 48.84 L 141.65 49.17 L 142.52 49.53 L 143.38 49.91 L 144.24 50.33 L 145.09 50.77 L 145.92 51.25 L 146.75 51.75 L 147.57 52.29 L 148.37 52.85 L 149.16 53.45 L 149.93 54.08 L 150.69 54.73 L 151.43 55.42 L 152.15 56.14 L 152.86 56.88 L 153.54 57.65 L 154.20 58.45 L 154.84 59.28 L 155.45 60.13 L 156.04 61.01 L 156.60 61.92 L 157.13 62.84 L 157.64 63.80 L 158.12 64.77 L 158.56 65.76 L 158.98 66.77 L 159.36 67.80 L 159.71 68.84 L 160.03 69.90 L 160.32 70.98 L 160.57 72.06 L 160.78 73.16 L 160.96 74.26 L 161.10 75.37 L 161.21 76.49 L 161.28 77.61 L 161.32 78.73 L 161.31 79.85 L 161.28 80.97 L 161.20 82.09 L 161.10 83.20 L 160.95 84.31 L 160.77 85.41 L 160.56 86.50 L 160.31 87.57 L 160.03 88.64 L 159.72 89.69 L 159.37 90.73 L 159.00 91.75 L 158.59 92.75 L 158.15 93.74 L 157.69 94.70 L 157.20 95.65 L 156.68 96.57 L 156.14 97.47 L 155.57 98.35 L 154.98 99.20 L 154.36 100.03 L 153.73 100.83 L 153.07 101.61 L 152.40 102.36 L 151.71 103.09 L 151.00 103.79 L 150.27 104.46 L 149.53 105.10 L 148.77 105.72 L 148.00 106.31 L 147.22 106.87 L 146.43 107.41 L 145.63 107.92 L 144.81 108.40 L 143.99 108.86 L 143.16 109.29 L 142.32 109.69 L 141.47 110.06 L 140.61 110.41 L 139.75 110.73 L 138.89 111.03 L 138.01 111.30 L 137.14 111.54 L 136.26 111.76 L 135.37 111.95 L 134.48 112.11 L 133.59 112.25 L 132.70 112.37 L 131.80 112.45 L 130.90 112.52 L 130.00 112.55 L 129.10 112.56 L 128.20 112.54 L 127.29 112.50 L 126.39 112.43 L 125.49 112.33 L 124.59 112.20 L 123.69 112.05 L 122.79 111.87 L 121.89 111.66 L 121.00 111.42 L 120.11 111.15 L 119.23 110.86 L 118.35 110.53 L 117.48 110.17 L 116.62 109.79 L 115.76 109.37 L 114.91 108.93 L 114.08 108.45 L 113.25 107.95 L 112.43 107.41 L 111.63 106.85 L 110.84 106.25 L 110.07 105.62 L 109.31 104.97 L 108.57 104.28 L 107.85 103.56 L 107.14 102.82 L 106.46 102.05 L 105.80 101.25 L 105.16 100.42 L 104.55 99.57 L 103.96 98.69 L 103.40 97.78 L 102.87 96.86 L 102.36 95.90 L 101.88 94.93 L 101.44 93.94 L 101.02 92.93 L 100.64 91.90 L 100.29 90.86 L 99.97 89.80 L 99.68 88.72 L 99.43 87.64 L 99.22 86.54 L 99.04 85.44 L 98.90 84.33 L 98.79 83.21 L 98.72 82.09 L 98.68 80.97 L 98.69 79.85 L 98.72 78.73 L 98.80 77.61 L 98.90 76.50 L 99.05 75.39 L 99.23 74.29 L 99.44 73.20 L 99.69 72.13 L 99.97 71.06 L 100.28 70.01 L 100.63 68.97 L 101.00 67.95 L 101.41 66.95 L 101.85 65.96 L 102.31 65.00 L 102.80 64.05 L 103.32 63.13 L 103.86 62.23 L 104.43 61.35 L 105.02 60.50 L 105.64 59.67 L 106.27 58.87 L 106.93 58.09 L 107.60 57.34 L 108.29 56.61 L 109.00 55.91 L 109.73 55.24 L 110.47 54.60 L 111.23 53.98 L 112.00 53.39 L 112.78 52.83 L 113.57 52.29 L 114.37 51.78 L 115.19 51.30 L 116.01 50.84 L 116.84 50.41 L 117.68 50.01 L 118.53 49.64 L 119.39 49.29 L 120.25 48.97 L 121.11 48.67 L 121.99 48.40 L 122.86 48.16 L 123.74 47.94 L 124.63 47.75 L 125.52 47.59 L 126.41 47.45 L 127.30 47.33 L 128.20 47.25 L 129.10 47.18 L 130.00 47.15 Z" fill="none"></path>
      <path d="M 130.00 41.43 L 131.07 41.37 L 132.14 41.33 L 133.22 41.34 L 134.29 41.37 L 135.37 41.45 L 136.45 41.56 L 137.53 41.71 L 138.61 41.89 L 139.69 42.12 L 140.76 42.38 L 141.83 42.69 L 142.89 43.03 L 143.95 43.41 L 144.99 43.84 L 146.03 44.30 L 147.06 44.80 L 148.07 45.35 L 149.07 45.93 L 150.06 46.56 L 151.03 47.23 L 151.98 47.93 L 152.91 48.68 L 153.82 49.46 L 154.71 50.28 L 155.57 51.14 L 156.41 52.03 L 157.22 52.96 L 158.00 53.93 L 158.75 54.93 L 159.48 55.96 L 160.16 57.02 L 160.82 58.11 L 161.44 59.23 L 162.03 60.37 L 162.58 61.54 L 163.09 62.74 L 163.57 63.95 L 164.00 65.18 L 164.40 66.43 L 164.75 67.70 L 165.07 68.98 L 165.35 70.27 L 165.58 71.57 L 165.77 72.88 L 165.92 74.20 L 166.03 75.52 L 166.10 76.84 L 166.13 78.16 L 166.12 79.48 L 166.06 80.80 L 165.97 82.11 L 165.84 83.42 L 165.67 84.71 L 165.46 86.00 L 165.21 87.27 L 164.93 88.53 L 164.61 89.78 L 164.26 91.00 L 163.88 92.22 L 163.46 93.41 L 163.01 94.58 L 162.52 95.74 L 162.01 96.87 L 161.47 97.98 L 160.91 99.07 L 160.31 100.13 L 159.69 101.17 L 159.05 102.18 L 158.38 103.17 L 157.69 104.14 L 156.98 105.07 L 156.24 105.98 L 155.49 106.87 L 154.72 107.73 L 153.93 108.56 L 153.12 109.36 L 152.30 110.14 L 151.46 110.88 L 150.60 111.61 L 149.73 112.30 L 148.85 112.97 L 147.95 113.61 L 147.04 114.22 L 146.11 114.80 L 145.18 115.36 L 144.23 115.88 L 143.27 116.38 L 142.31 116.86 L 141.33 117.30 L 140.34 117.71 L 139.34 118.09 L 138.33 118.45 L 137.32 118.77 L 136.29 119.07 L 135.26 119.33 L 134.22 119.56 L 133.17 119.76 L 132.12 119.93 L 131.06 120.06 L 130.00 120.17 L 128.93 120.23 L 127.86 120.27 L 126.78 120.26 L 125.71 120.23 L 124.63 120.15 L 123.55 120.04 L 122.47 119.89 L 121.39 119.71 L 120.31 119.48 L 119.24 119.22 L 118.17 118.91 L 117.11 118.57 L 116.05 118.19 L 115.01 117.76 L 113.97 117.30 L 112.94 116.80 L 111.93 116.25 L 110.93 115.67 L 109.94 115.04 L 108.97 114.37 L 108.02 113.67 L 107.09 112.92 L 106.18 112.14 L 105.29 111.32 L 104.43 110.46 L 103.59 109.57 L 102.78 108.64 L 102.00 107.67 L 101.25 106.67 L 100.52 105.64 L 99.84 104.58 L 99.18 103.49 L 98.56 102.37 L 97.97 101.23 L 97.42 100.06 L 96.91 98.86 L 96.43 97.65 L 96.00 96.42 L 95.60 95.17 L 95.25 93.90 L 94.93 92.62 L 94.65 91.33 L 94.42 90.03 L 94.23 88.72 L 94.08 87.40 L 93.97 86.08 L 93.90 84.76 L 93.87 83.44 L 93.88 82.12 L 93.94 80.80 L 94.03 79.49 L 94.16 78.18 L 94.33 76.89 L 94.54 75.60 L 94.79 74.33 L 95.07 73.07 L 95.39 71.82 L 95.74 70.60 L 96.12 69.38 L 96.54 68.19 L 96.99 67.02 L 97.48 65.86 L 97.99 64.73 L 98.53 63.62 L 99.09 62.53 L 99.69 61.47 L 100.31 60.43 L 100.95 59.42 L 101.62 58.43 L 102.31 57.46 L 103.02 56.53 L 103.76 55.62 L 104.51 54.73 L 105.28 53.87 L 106.07 53.04 L 106.88 52.24 L 107.70 51.46 L 108.54 50.72 L 109.40 49.99 L 110.27 49.30 L 111.15 48.63 L 112.05 47.99 L 112.96 47.38 L 113.89 46.80 L 114.82 46.24 L 115.77 45.72 L 116.73 45.22 L 117.69 44.74 L 118.67 44.30 L 119.66 43.89 L 120.66 43.51 L 121.67 43.15 L 122.68 42.83 L 123.71 42.53 L 124.74 42.27 L 125.78 42.04 L 126.83 41.84 L 127.88 41.67 L 128.94 41.54 L 130.00 41.43 Z" fill="none"></path>
      <path d="M 130.00 35.05 L 131.25 34.94 L 132.51 34.88 L 133.77 34.86 L 135.04 34.89 L 136.31 34.97 L 137.57 35.10 L 138.84 35.28 L 140.11 35.50 L 141.37 35.78 L 142.62 36.11 L 143.87 36.49 L 145.11 36.92 L 146.33 37.40 L 147.55 37.94 L 148.75 38.52 L 149.93 39.15 L 151.09 39.84 L 152.24 40.57 L 153.36 41.36 L 154.46 42.19 L 155.54 43.07 L 156.58 43.99 L 157.60 44.96 L 158.59 45.98 L 159.54 47.04 L 160.47 48.13 L 161.35 49.27 L 162.21 50.44 L 163.02 51.65 L 163.80 52.90 L 164.53 54.18 L 165.23 55.48 L 165.88 56.82 L 166.49 58.18 L 167.06 59.56 L 167.58 60.97 L 168.06 62.40 L 168.50 63.84 L 168.89 65.30 L 169.23 66.77 L 169.53 68.25 L 169.79 69.75 L 170.00 71.24 L 170.17 72.75 L 170.29 74.25 L 170.37 75.76 L 170.40 77.26 L 170.40 78.76 L 170.35 80.26 L 170.25 81.75 L 170.12 83.23 L 169.95 84.70 L 169.74 86.16 L 169.49 87.61 L 169.20 89.05 L 168.88 90.46 L 168.52 91.87 L 168.13 93.25 L 167.70 94.62 L 167.24 95.97 L 166.75 97.30 L 166.23 98.60 L 165.68 99.89 L 165.10 101.16 L 164.49 102.40 L 163.85 103.62 L 163.19 104.81 L 162.50 105.99 L 161.79 107.14 L 161.05 108.26 L 160.29 109.36 L 159.51 110.43 L 158.70 111.48 L 157.87 112.51 L 157.02 113.50 L 156.15 114.47 L 155.26 115.42 L 154.35 116.34 L 153.42 117.23 L 152.47 118.09 L 151.50 118.92 L 150.51 119.73 L 149.50 120.50 L 148.48 121.25 L 147.44 121.96 L 146.38 122.64 L 145.30 123.30 L 144.21 123.91 L 143.10 124.50 L 141.97 125.05 L 140.83 125.56 L 139.68 126.04 L 138.51 126.48 L 137.33 126.89 L 136.13 127.25 L 134.93 127.58 L 133.71 127.86 L 132.48 128.10 L 131.24 128.30 L 130.00 128.45 L 128.75 128.56 L 127.49 128.62 L 126.23 128.64 L 124.96 128.61 L 123.69 128.53 L 122.43 128.40 L 121.16 128.22 L 119.89 128.00 L 118.63 127.72 L 117.38 127.39 L 116.13 127.01 L 114.89 126.58 L 113.67 126.10 L 112.45 125.56 L 111.25 124.98 L 110.07 124.35 L 108.91 123.66 L 107.76 122.93 L 106.64 122.14 L 105.54 121.31 L 104.46 120.43 L 103.42 119.51 L 102.40 118.54 L 101.41 117.52 L 100.46 116.46 L 99.53 115.37 L 98.65 114.23 L 97.79 113.06 L 96.98 111.85 L 96.20 110.60 L 95.47 109.32 L 94.77 108.02 L 94.12 106.68 L 93.51 105.32 L 92.94 103.94 L 92.42 102.53 L 91.94 101.10 L 91.50 99.66 L 91.11 98.20 L 90.77 96.73 L 90.47 95.25 L 90.21 93.75 L 90.00 92.26 L 89.83 90.75 L 89.71 89.25 L 89.63 87.74 L 89.60 86.24 L 89.60 84.74 L 89.65 83.24 L 89.75 81.75 L 89.88 80.27 L 90.05 78.80 L 90.26 77.34 L 90.51 75.89 L 90.80 74.45 L 91.12 73.04 L 91.48 71.63 L 91.87 70.25 L 92.30 68.88 L 92.76 67.53 L 93.25 66.20 L 93.77 64.90 L 94.32 63.61 L 94.90 62.34 L 95.51 61.10 L 96.15 59.88 L 96.81 58.69 L 97.50 57.51 L 98.21 56.36 L 98.95 55.24 L 99.71 54.14 L 100.49 53.07 L 101.30 52.02 L 102.13 50.99 L 102.98 50.00 L 103.85 49.03 L 104.74 48.08 L 105.65 47.16 L 106.58 46.27 L 107.53 45.41 L 108.50 44.58 L 109.49 43.77 L 110.50 43.00 L 111.52 42.25 L 112.56 41.54 L 113.62 40.86 L 114.70 40.20 L 115.79 39.59 L 116.90 39.00 L 118.03 38.45 L 119.17 37.94 L 120.32 37.46 L 121.49 37.02 L 122.67 36.61 L 123.87 36.25 L 125.07 35.92 L 126.29 35.64 L 127.52 35.40 L 128.76 35.20 L 130.00 35.05 Z" fill="none"></path>
    </g>
  </g>
</svg>